MoBL_ARMS_module2_4_allmuscles_shoulder_states	
version=1	
nRows=336	
nColumns=2	
inDegrees=yes	
	
# SIMM Motion File Header:	
name MoBL_ARMS_module2_4_allmuscles_shoulder_states	
datacolumns 2	
datarows 336	
otherdata 1	
range 3.253633321 3.991493182	
endheader	
time	shoulder_elv
3.253633321	12.75369833
3.255607485	12.77345663
3.258372594	12.80138168
3.260618961	12.82428837
3.262865327	12.84739615
3.265111694	12.87070813
3.266964685	12.89009335
3.268817677	12.90962064
3.271074904	12.9336022
3.273038555	12.95464014
3.275002206	12.97584338
3.278401623	13.01294453
3.279805517	13.0284141
3.281844706	13.0510388
3.284362365	13.07922698
3.286404171	13.10229581
3.288445976	13.12555305
3.290913241	13.15390956
3.293380506	13.18254546
3.296014545	13.21342699
3.297684593	13.23317326
3.299738471	13.25763527
3.30179235	13.28229324
3.303846228	13.30714681
3.305900107	13.33219597
3.309001777	13.37039322
3.310786425	13.39257222
3.313087716	13.42138743
3.31487794	13.4439708
3.316668163	13.46669983
3.318868116	13.4948296
3.32106807	13.52317701
3.323268023	13.55174109
3.326056397	13.58825392
3.327622844	13.60891655
3.329689124	13.63633655
3.331898135	13.66585587
3.334107145	13.69558522
3.336316156	13.72552308
3.339058733	13.76297914
3.340634069	13.78463665
3.342699028	13.8131817
3.344950797	13.84450993
3.347202566	13.87604561
3.349454336	13.90778726
3.352841519	13.95591726
3.354144837	13.97455839
3.355978038	14.00089163
3.359677928	14.05443972
3.361438987	14.08011368
3.363200047	14.1059072
3.366191155	14.14998757
3.367571518	14.17044432
3.369620163	14.20093632
3.372518491	14.24434077
3.374437682	14.27325124
3.376356872	14.30229526
3.378276063	14.3314712
3.380612303	14.36716361
3.38252923	14.39659259
3.384446157	14.42614904
3.387414544	14.47216495
3.388724529	14.4925669
3.390662424	14.52285254
3.394029454	14.57576558
3.39571087	14.60232597
3.397764539	14.63488865
3.400525573	14.6788752
3.402447938	14.70964016
3.404370303	14.74051816
3.406292668	14.77150881
3.408712364	14.81067605
3.410545173	14.84046139
3.412377983	14.87034794
3.414628461	14.90718415
3.416878938	14.94417415
3.419129416	14.98132071
3.422104252	15.0306703
3.423922032	15.06096783
3.425739811	15.09137707
3.42875353	15.14204629
3.430058942	15.16409575
3.431970072	15.19649129
3.435306863	15.25339573
3.436991905	15.28230533
3.43904162	15.31763638
3.441727449	15.36421645
3.443481474	15.39481757
3.445621284	15.43235028
3.447761095	15.47011206
3.449900906	15.50811064
3.452040716	15.54635484
3.45447127	15.59010274
3.456616461	15.62899328
3.458761651	15.66815237
3.460906842	15.70758526
3.463052032	15.74729781
3.466129075	15.80475781
3.46782612	15.83670263
3.470103609	15.87986101
3.472060422	15.91720784
3.474017235	15.954801
3.475974048	15.9926418
3.478421293	16.04031563
3.480152202	16.07426977
3.481883111	16.10841838
3.484424601	16.15891115
3.486798605	16.20645386
3.48855119	16.24178523
3.490303776	16.27731364
3.492788007	16.32800994
3.495188289	16.37736396
3.496929086	16.41338423
3.498669883	16.44959289
3.50122048	16.50298288
3.503676515	16.55476774
3.50534267	16.59010513
3.507371632	16.63336011
3.509986885	16.68947115
3.511795628	16.7285098
3.513604371	16.76773552
3.516550608	16.83202223
3.518129726	16.86667547
3.520331043	16.91520728
3.522826099	16.97052594
3.525016398	17.01935384
3.527206697	17.06842557
3.529129091	17.11169107
3.531051484	17.15513639
3.533956326	17.22111617
3.535263773	17.25094067
3.537293901	17.29740307
3.54281513	17.42467217
3.544883153	17.47266999
3.546951176	17.52083986
3.549019199	17.56917668
3.551087223	17.61767669
3.553155246	17.66633496
3.555223269	17.7151477
3.557291292	17.76411015
3.559359315	17.8132188
3.561427339	17.86246896
3.563495362	17.91185738
3.565563385	17.96137966
3.567631408	18.01103262
3.569699431	18.06081214
3.571767454	18.11071538
3.573835478	18.16073829
3.575903501	18.21087823
3.577971524	18.26113124
3.580039547	18.31149463
3.58210757	18.36196466
3.584175594	18.41253886
3.586243617	18.4632134
3.58831164	18.51398589
3.590379663	18.56485258
3.592447686	18.61581115
3.59451571	18.66685784
3.596583733	18.71799023
3.598651756	18.76920442
3.600719779	18.82049787
3.602787802	18.87186663
3.604855826	18.9233082
3.606923849	18.97481873
3.608991872	19.02639575
3.611059895	19.07803544
3.613127918	19.12973549
3.615195942	19.18149209
3.617263965	19.23330265
3.619331988	19.28516336
3.621400011	19.33707169
3.623468034	19.3890236
3.625536057	19.44101656
3.627604081	19.49304652
3.629672104	19.54511069
3.631740127	19.59720508
3.63380815	19.64932696
3.635876173	19.70147207
3.637944197	19.75363768
3.64001222	19.80581946
3.642080243	19.85801438
3.644148266	19.91021824
3.646216289	19.96242818
3.648284313	20.01463991
3.650352336	20.06685082
3.652420359	20.1190568
3.654488382	20.17125519
3.656556405	20.22344217
3.658624429	20.27561539
3.660692452	20.32777097
3.662760475	20.37990675
3.665253576	20.44272729
3.667127081	20.48991053
3.669000585	20.53706958
3.671385735	20.59707003
3.673770886	20.65702359
3.676156036	20.71692724
3.678775396	20.7826496
3.680321509	20.82141031
3.682358255	20.87243107
3.685048377	20.93974609
3.68695262	20.98734269
3.688856863	21.03489349
3.691245384	21.0944684
3.692968941	21.13740869
3.694692498	21.18030585
3.697259589	21.24411531
3.699756822	21.30608934
3.701380521	21.34633114
3.703399615	21.3963108
3.706107211	21.46322376
3.707892102	21.5072626
3.709676993	21.55124421
3.712627363	21.62381351
3.714247008	21.66358066
3.716456476	21.71774614
3.718803708	21.77518135
3.72115094	21.83250202
3.723498172	21.88970633
3.725458963	21.93740056
3.727419755	21.98500991
3.72993539	22.04596264
3.731530904	22.08454525
3.733544501	22.13315105
3.736332044	22.20027596
3.738083131	22.24234283
3.739834218	22.28433171
3.742790756	22.35504218
3.744303568	22.39113256
3.746724089	22.44874544
3.749274684	22.50927407
3.751621506	22.56479817
3.753394039	22.60662563
3.755166572	22.64835615
3.757628191	22.70614602
3.760030766	22.76236084
3.761771906	22.802981
3.763513047	22.84349898
3.766070063	22.90281521
3.768533556	22.95974532
3.770196071	22.99804341
3.772219842	23.04452794
3.774838579	23.10445474
3.776647922	23.1457089
3.778457266	23.18683907
3.781355944	23.25246749
3.782953704	23.28850123
3.785133343	23.33749334
3.787579091	23.3922384
3.789750938	23.44064634
3.791922784	23.48885857
3.794094631	23.53687106
3.796266478	23.58468251
3.800127761	23.66917903
3.801929314	23.70837692
3.804277342	23.75924706
3.806658655	23.81058237
3.808464005	23.84932831
3.810269355	23.88792276
3.81272883	23.94025541
3.815096826	23.99036998
3.816878206	24.0278931
3.818659586	24.06526238
3.821160606	24.11746684
3.823640954	24.16893428
3.825312798	24.20345253
3.82736505	24.24563223
3.830086114	24.30122843
3.831813135	24.33631724
3.833540156	24.37125253
3.83652002	24.43116487
3.838345808	24.46764307
3.841085432	24.52204653
3.84289321	24.55772555
3.845369715	24.60631573
3.847446363	24.64680342
3.849959074	24.69547562
3.85159245	24.726928
3.853667745	24.76667529
3.85667298	24.82380567
3.858276105	24.85407256
3.860202487	24.89024998
3.86418283	24.9643261
3.86545106	24.98773666
3.867624169	25.0276327
3.871899195	25.10530959
3.873284915	25.1302575
3.874670635	25.15509117
3.877450863	25.20457114
3.879799992	25.24601795
3.882633074	25.29555999
3.883938978	25.31823295
3.886034446	25.35439675
3.890836073	25.43624836
3.892065115	25.45697196
3.893294158	25.47760188
3.896836947	25.5365458
3.898291628	25.56052335
3.901026038	25.60523864
3.905400059	25.67579647
3.906752514	25.69737172
3.908104968	25.71883191
3.910622524	25.75847375
3.913484651	25.80305672
3.915911653	25.84045567
3.917721091	25.86809544
3.919530528	25.89552584
3.922305401	25.93718322
3.925153479	25.97941889
3.926453254	25.9985177
3.928556465	26.02918479
3.933139531	26.09498069
3.934564649	26.11514839
3.935989768	26.13517445
3.938737184	26.17337741
3.941261333	26.20799778
3.94398434	26.24481993
3.945407256	26.26384101
3.947524139	26.2918524
3.952359342	26.35451656
3.954107893	26.37671329
3.955856444	26.39865786
3.959007201	26.43754746
3.961019761	26.46193989
3.964078341	26.49832287
3.965523909	26.51522506
3.967829276	26.54178212
3.974214053	26.61271231
3.976504801	26.63719704
3.97879555	26.66116122
3.981086298	26.6845967
3.983121084	26.70496575
3.985155871	26.72490808
3.987190658	26.74442049
3.989791901	26.76873171
3.991493182	26.7842454
